<svg width="144" height="445" xmlns="http://www.w3.org/2000/svg"><g stroke="#DDD" fill="none" fill-rule="evenodd"><path d="M-88.5 449.964V116.349C-88.5 52.367-36.633.499 27.35.499 91.33.5 143.197 52.368 143.197 116.35v333.615"/><path d="M-71.608 449.964V116.349c0-54.565 44.392-98.956 98.957-98.956 54.565 0 98.957 44.39 98.957 98.956v333.615"/><path d="M-54.716 449.964V116.349c0-45.25 36.814-82.065 82.065-82.065 45.25 0 82.065 36.815 82.065 82.065v333.615"/><path d="M-37.824 449.964V116.349c0-35.936 29.236-65.172 65.173-65.172s65.173 29.236 65.173 65.172v333.615"/><path d="M-20.932 449.964V116.349c0-26.622 21.659-48.281 48.281-48.281s48.282 21.659 48.282 48.28v333.616"/></g></svg>