<svg width="389" height="197" xmlns="http://www.w3.org/2000/svg"><g stroke="#DDD" fill="none" fill-rule="evenodd"><path d="M423-28S352.081 4.3 364.69 84.097c14.136 89.474-67.767 127.93-123.714 105.764C185.03 167.696 188.91 85.522 82.593 82.997-26.11 80.415-49-22.933-49-22.933"/><path d="M341-52s-30.72 68.39-19.692 136.44c11.028 68.048-38.549 76.005-58.288 68.048-40.958-16.512-48.835-104.784-115-110.5C98.283 37.692 31.445 71.836-4-5.64"/><path d="M307.925-21.676s11.065 69.618-37.814 57.19c-56.027-14.244-55.147-47.703-126.049-16.08C118.843 30.68 17.225 33.978 37.708-28M272.5 128c-11.874 0-21.5-14.103-21.5-31.5S260.626 65 272.5 65c11.875 0 21.5 14.103 21.5 31.5s-9.625 31.5-21.5 31.5z"/></g></svg>