<svg width="360" height="151" xmlns="http://www.w3.org/2000/svg"><g fill="none" fill-rule="evenodd"><path d="M93.07 148.129v2.07H91v-2.07h2.07zm11.329 0v2.07h-2.07v-2.07h2.07zm11.329 0v2.07h-2.07v-2.07h2.07zm11.33 0v2.07h-2.07v-2.07h2.07zm11.329 0v2.07h-2.07v-2.07h2.07zm11.329 0v2.07h-2.07v-2.07h2.07zm11.329 0v2.07h-2.069v-2.07h2.069zm11.329 0v2.07h-2.069v-2.07h2.069zm11.33 0v2.07h-2.069v-2.07h2.069zm11.329 0v2.07h-2.069v-2.07h2.069zm11.33 0v2.07h-2.07v-2.07h2.07zM93.07 135.616v2.069H91v-2.069h2.07zm67.975.001v2.069h-2.069v-2.069h2.069zm-33.988 0v2.069h-2.07v-2.069h2.07zm45.318 0v2.069h-2.07v-2.069h2.07zm-67.976 0v2.069h-2.069v-2.069h2.069zm79.305 0v2.069h-2.07v-2.069h2.07zm-45.317 0v2.069h-2.069v-2.069h2.069zm56.646 0v2.069h-2.069v-2.069h2.069zm-79.305 0v2.069h-2.07v-2.069h2.07zm90.635-.001v2.069h-2.07v-2.069h2.07zm-56.647.001v2.069h-2.07v-2.069h2.07zM93.07 123.104v2.069H91v-2.069h2.07zm11.329 0v2.069h-2.069v-2.069h2.069zm79.305 0v2.069h-2.07v-2.069h2.07zm-67.976 0v2.069h-2.07v-2.069h2.07zm11.329 0v2.069h-2.07v-2.069h2.07zm67.976 0v2.069h-2.069v-2.069h2.069zm-56.646 0v2.069h-2.069v-2.069h2.069zm11.329 0v2.069h-2.07v-2.069h2.07zm56.647 0v2.069h-2.07v-2.069h2.07zm-45.318 0v2.069h-2.069v-2.069h2.069zm11.33 0v2.069h-2.07v-2.069h2.07zm0-12.514v2.07h-2.07v-2.07h2.07zm11.329 0v2.07h-2.07v-2.07h2.07zm-56.647 0v2.07h-2.07v-2.07h2.07zm11.33 0v2.07h-2.069v-2.07h2.069zm-45.317 0v2.07H91v-2.07h2.07zm56.646 0v2.07h-2.07v-2.07h2.07zm11.329 0v2.07h-2.069v-2.07h2.069zm45.318 0v2.07h-2.07v-2.07h2.07zm-11.33 0v2.07h-2.069v-2.07h2.069zm-90.634 0v2.07h-2.069v-2.07h2.069zm11.329 0v2.07h-2.07v-2.07h2.07zM93.07 98.077v2.07H91v-2.07h2.07zm11.329.001v2.07h-2.069v-2.07h2.069zm11.329 0v2.07h-2.07v-2.07h2.07zm11.329 0v2.07h-2.07v-2.07h2.07zm11.33 0v2.07h-2.069v-2.07h2.069zm11.329 0v2.07h-2.07v-2.07h2.07zm11.329 0v2.07h-2.069v-2.07h2.069zm11.33 0v2.07h-2.07v-2.07h2.07zm11.329 0v2.07h-2.07v-2.07h2.07zm11.329 0v2.07h-2.069v-2.07h2.069zm11.33-.001v2.07h-2.07v-2.07h2.07zm-79.306-12.512v2.069h-2.07v-2.069h2.07zm45.318 0v2.069h-2.07v-2.069h2.07zm22.658 0v2.069h-2.069v-2.069h2.069zm-11.329 0v2.069h-2.07v-2.069h2.07zm-33.988 0v2.069h-2.07v-2.069h2.07zm-56.646 0v2.069H91v-2.069h2.07zm67.975 0v2.069h-2.069v-2.069h2.069zm-45.317 0v2.069h-2.07v-2.069h2.07zm22.659 0v2.069h-2.069v-2.069h2.069zm67.976 0v2.069h-2.07v-2.069h2.07zm-101.964 0v2.069h-2.069v-2.069h2.069zm33.988-12.513v2.069h-2.069v-2.069h2.069zm-45.317 0v2.069H91v-2.069h2.07zm33.987 0v2.069h-2.07v-2.069h2.07zm67.976 0v2.069h-2.069v-2.069h2.069zm-22.658 0v2.069h-2.07v-2.069h2.07zm-56.647 0v2.069h-2.07v-2.069h2.07zm33.988 0v2.069h-2.07v-2.069h2.07zm56.647 0v2.069h-2.07v-2.069h2.07zm-101.964 0v2.069h-2.069v-2.069h2.069zm79.305 0v2.069h-2.07v-2.069h2.07zm-22.659 0v2.069h-2.069v-2.069h2.069zm-33.988-12.513v2.07h-2.07v-2.07h2.07zm56.647 0v2.07h-2.07v-2.07h2.07zm-79.305 0v2.07h-2.069v-2.07h2.069zm56.646 0v2.07h-2.069v-2.07h2.069zm33.988 0v2.07h-2.069v-2.07h2.069zm-56.646 0v2.07h-2.069v-2.07h2.069zm33.988 0v2.07h-2.07v-2.07h2.07zm-56.647 0v2.07h-2.07v-2.07h2.07zm33.988 0v2.07h-2.07v-2.07h2.07zm-56.646-.001v2.07H91v-2.07h2.07zm113.293 0v2.07h-2.07v-2.07h2.07zM93.07 48.026v2.069H91v-2.069h2.07zm56.646 0v2.069h-2.07v-2.069h2.07zm33.988 0v2.069h-2.07v-2.069h2.07zm-22.659 0v2.069h-2.069v-2.069h2.069zm11.33 0v2.069h-2.07v-2.069h2.07zm33.988 0v2.069h-2.07v-2.069h2.07zm-101.964 0v2.069h-2.069v-2.069h2.069zm11.329 0v2.069h-2.07v-2.069h2.07zm11.329 0v2.069h-2.07v-2.069h2.07zm67.976 0v2.069h-2.069v-2.069h2.069zm-56.646 0v2.069h-2.069v-2.069h2.069zm-11.33-12.513v2.069h-2.07v-2.069h2.07zm11.33 0v2.069h-2.069v-2.069h2.069zm56.646 0v2.069h-2.069v-2.069h2.069zm-45.317 0v2.069h-2.07v-2.069h2.07zm-56.646 0v2.069H91v-2.069h2.07zm22.658 0v2.069h-2.07v-2.069h2.07zm67.976 0v2.069h-2.07v-2.069h2.07zm-79.305 0v2.069h-2.069v-2.069h2.069zm56.646 0v2.069h-2.069v-2.069h2.069zm45.318 0v2.069h-2.07v-2.069h2.07zm-33.988 0v2.069h-2.07v-2.069h2.07zM93.07 23v2.069H91V23h2.07zm11.329 0v2.069h-2.07V23h2.07zm11.329 0v2.069h-2.07V23h2.07zm11.33 0v2.069h-2.07V23h2.07zm11.329 0v2.069h-2.07V23h2.07zm11.329 0v2.069h-2.07V23h2.07zm11.329 0v2.069h-2.069V23h2.069zm11.329 0v2.069h-2.069V23h2.069zm11.33 0v2.069h-2.069V23h2.069zm11.329 0v2.069h-2.069V23h2.069zm11.33 0v2.069h-2.07V23h2.07z" fill="#DDD"/><path d="M-1.605-17c0 38.9 31.647 70.549 70.547 70.549h318.445" stroke="#DDD" stroke-width=".788"/></g></svg>